<svg width="16" height="20" viewBox="0 0 16 20" fill="none" xmlns="http://www.w3.org/2000/svg">
<path d="M11.6781 2.65234H13.4831C13.9619 2.65234 14.421 2.84252 14.7595 3.18104C15.098 3.51955 15.2882 3.97868 15.2882 4.45741V17.0929C15.2882 17.5716 15.098 18.0308 14.7595 18.3693C14.421 18.7078 13.9619 18.898 13.4831 18.898H2.65272C2.17399 18.898 1.71486 18.7078 1.37635 18.3693C1.03783 18.0308 0.847656 17.5716 0.847656 17.0929V4.45741C0.847656 3.97868 1.03783 3.51955 1.37635 3.18104C1.71486 2.84252 2.17399 2.65234 2.65272 2.65234H4.45779" stroke="black" stroke-width="1.3" stroke-linecap="round" stroke-linejoin="round"/>
<path d="M10.7754 0.847656H5.36018C4.86172 0.847656 4.45764 1.25173 4.45764 1.75019V3.55526C4.45764 4.05371 4.86172 4.45779 5.36018 4.45779H10.7754C11.2738 4.45779 11.6779 4.05371 11.6779 3.55526V1.75019C11.6779 1.25173 11.2738 0.847656 10.7754 0.847656Z" stroke="black" stroke-width="1.3" stroke-linecap="round" stroke-linejoin="round"/>
</svg>
