<svg width="14" height="10" viewBox="0 0 14 10" fill="none" xmlns="http://www.w3.org/2000/svg">
<path d="M13.5 5C13.5 6.5 10.59 9.5 7 9.5C3.41 9.5 0.5 6.5 0.5 5C0.5 3.5 3.41 0.5 7 0.5C10.59 0.5 13.5 3.5 13.5 5Z" stroke="black" stroke-linejoin="round"/>
<path d="M9.5 5C9.5 5.66304 9.23661 6.29893 8.76777 6.76777C8.29893 7.23661 7.66304 7.5 7 7.5C6.33696 7.5 5.70107 7.23661 5.23223 6.76777C4.76339 6.29893 4.5 5.66304 4.5 5C4.5 4.33696 4.76339 3.70107 5.23223 3.23223C5.70107 2.76339 6.33696 2.5 7 2.5C7.66304 2.5 8.29893 2.76339 8.76777 3.23223C9.23661 3.70107 9.5 4.33696 9.5 5Z" stroke="black" stroke-linejoin="round"/>
</svg>
