<svg width="20" height="20" viewBox="0 0 20 20" fill="none" xmlns="http://www.w3.org/2000/svg">
    <g clip-path="url(#clip0_2626_12230)">
        <path d="M20.4661 16.9787H18.8644V7.10638H19.0424C19.184 7.10638 19.3198 7.05258 19.4199 6.95682C19.52 6.86106 19.5763 6.73117 19.5763 6.59575C19.5763 6.46032 19.52 6.33043 19.4199 6.23467C19.3198 6.13891 19.184 6.08511 19.0424 6.08511H14.5932V3.02128H14.7712C14.9128 3.02128 15.0486 2.96748 15.1487 2.87171C15.2488 2.77595 15.3051 2.64607 15.3051 2.51064C15.3051 2.37521 15.2488 2.24533 15.1487 2.14956C15.0486 2.0538 14.9128 2 14.7712 2H1.95763C1.81603 2 1.68023 2.0538 1.5801 2.14956C1.47998 2.24533 1.42373 2.37521 1.42373 2.51064C1.42373 2.64607 1.47998 2.77595 1.5801 2.87171C1.68023 2.96748 1.81603 3.02128 1.95763 3.02128H2.13559V16.9787H0.533898C0.3923 16.9787 0.2565 17.0325 0.156375 17.1283C0.0562498 17.2241 0 17.3539 0 17.4894C0 17.6248 0.0562498 17.7547 0.156375 17.8504C0.2565 17.9462 0.3923 18 0.533898 18H20.4661C20.6077 18 20.7435 17.9462 20.8436 17.8504C20.9438 17.7547 21 17.6248 21 17.4894C21 17.3539 20.9438 17.2241 20.8436 17.1283C20.7435 17.0325 20.6077 16.9787 20.4661 16.9787ZM17.7966 7.10638V16.9787H14.5932V7.10638H17.7966ZM3.20339 3.02128H13.5254V16.9787H11.0339V12.7234C11.0339 12.588 10.9776 12.4581 10.8775 12.3623C10.7774 12.2666 10.6416 12.2128 10.5 12.2128H6.22881C6.08721 12.2128 5.95142 12.2666 5.85129 12.3623C5.75117 12.4581 5.69492 12.588 5.69492 12.7234V16.9787H3.20339V3.02128ZM9.9661 16.9787H6.76271V13.234H9.9661V16.9787Z" fill="black"/>
        <rect x="5" y="7" width="7" height="1" rx="0.5" fill="black"/>
    </g>
    <defs>
        <clipPath id="clip0_2626_12230">
            <rect width="20" height="20" fill="white"/>
        </clipPath>
    </defs>
</svg>
