<svg width="20" height="20" viewBox="0 0 20 20" fill="none" xmlns="http://www.w3.org/2000/svg">
<path d="M15.2776 6.31104C15.2776 4.90247 14.718 3.55158 13.722 2.55557C12.726 1.55955 11.3751 1 9.96654 1C8.55796 1 7.20708 1.55955 6.21106 2.55557C5.21505 3.55158 4.65549 4.90247 4.65549 6.31104C4.65549 12.5073 1.99997 14.2776 1.99997 14.2776H17.9331C17.9331 14.2776 15.2776 12.5073 15.2776 6.31104Z" stroke="black" stroke-width="1.3" stroke-linecap="round" stroke-linejoin="round"/>
<path d="M11.4978 17.8184C11.3422 18.0866 11.1189 18.3093 10.8501 18.4641C10.5813 18.6189 10.2766 18.7004 9.9665 18.7004C9.65635 18.7004 9.35165 18.6189 9.08289 18.4641C8.81414 18.3093 8.59077 18.0866 8.43515 17.8184" stroke="black" stroke-width="1.3" stroke-linecap="round" stroke-linejoin="round"/>
</svg>
