<svg width="19" height="18" viewBox="0 0 19 18" fill="none" xmlns="http://www.w3.org/2000/svg">
<path d="M7.2235 17.3371C7.65314 17.3371 8.00144 16.9888 8.00144 16.5592C8.00144 16.1295 7.65314 15.7812 7.2235 15.7812C6.79385 15.7812 6.44556 16.1295 6.44556 16.5592C6.44556 16.9888 6.79385 17.3371 7.2235 17.3371Z" stroke="black" stroke-width="1.3" stroke-linecap="round" stroke-linejoin="round"/>
<path d="M15.7809 17.3371C16.2105 17.3371 16.5588 16.9888 16.5588 16.5592C16.5588 16.1295 16.2105 15.7812 15.7809 15.7812C15.3512 15.7812 15.0029 16.1295 15.0029 16.5592C15.0029 16.9888 15.3512 17.3371 15.7809 17.3371Z" stroke="black" stroke-width="1.3" stroke-linecap="round" stroke-linejoin="round"/>
<path d="M1 1H4.11176L6.19664 11.4166C6.26777 11.7748 6.46262 12.0965 6.74706 12.3255C7.03151 12.5545 7.38743 12.6761 7.75252 12.6691H15.3141C15.6792 12.6761 16.0351 12.5545 16.3195 12.3255C16.604 12.0965 16.7988 11.7748 16.87 11.4166L18.1147 4.8897H4.8897" stroke="black" stroke-width="1.3" stroke-linecap="round" stroke-linejoin="round"/>
</svg>
